<svg id="Layer_1" data-name="Layer 1" xmlns="http://www.w3.org/2000/svg" viewBox="0 0 841.89 595.28"><defs><style>.cls-1{fill:#fff;}</style></defs><path class="cls-1" d="M210.3,73.45H371.47q29.5,0,55.87,23.74t26.37,57.52a28.27,28.27,0,0,1-9.39,21.46q-9.39,8.81-20.81,8.8-15.84,0-21.74-6.86T390.53,152.6Q385.17,134,366.72,134H213.56q-11.07,0-11.07,6.82-.3,4.31,4.5,9.93L437.09,430.9c11.08,13.59,33.51,34.39,40,48.45,11.15,24.18,72.71,67.72,14.64,54.66-18.46-4.16-86.38,7-102.83,7H222q-33.15,0-57.65-24.09T139.87,464q0-33.06,32.41-33.07a29.49,29.49,0,0,1,21.37,8.62q8.83,8.63,8.84,20.23a20.72,20.72,0,0,0,6.81,15.83q6.81,6.33,17.13,6.33h154q9.94,0,9.94-7.53.28-3.58-4.52-9.21L156.11,185q-16.25-20-16.24-43.62,0-27.43,20.65-47.67T210.3,73.45Z"/><path class="cls-1" d="M477.07,511.44v-438h280.7a30.62,30.62,0,0,1,21.55,8.79Q788.71,91,788.71,103a28.7,28.7,0,0,1-9.21,21.28,30.11,30.11,0,0,1-21.73,9H539v92.88H695.88a30.55,30.55,0,0,1,21.92,8.62,28.77,28.77,0,0,1,0,41.86,30.55,30.55,0,0,1-21.92,8.62H539V511.44a27.89,27.89,0,0,1-9,20.94,32.21,32.21,0,0,1-43.84,0A27.86,27.86,0,0,1,477.07,511.44Z"/><rect class="cls-1" x="262.25" y="516.34" width="250.04" height="24.65"/></svg>